<svg width="236" height="236" viewBox="0 0 236 236" fill="none" xmlns="http://www.w3.org/2000/svg">
<path d="M2.06269 2.06125H233.936V233.935H2.06269V2.06125Z" fill="white"/>
<path d="M0 0H7.21397V7.21397H0V0Z" fill="#ADADAD"/>
<path d="M0 7.21397L3.09165 7.2139V228.782H0L0 7.21397Z" fill="#ADADAD"/>
<path d="M0 228.782L7.21397 228.782V235.996H0L0 228.782Z" fill="#ADADAD"/>
<path d="M7.21355 232.905H228.782V235.996L7.21397 235.996L7.21355 232.905Z" fill="#ADADAD"/>
<path d="M228.782 228.782H235.996V235.996L228.782 235.996L228.782 228.782Z" fill="#ADADAD"/>
<path d="M228.782 0H235.996V7.21397H228.782V0Z" fill="#ADADAD"/>
<path d="M7.21397 0H228.782L228.782 3.09165H7.21366L7.21397 0Z" fill="#ADADAD"/>
<path d="M7.21397 7.21397H228.782L228.782 12.3667H7.21366L7.21397 7.21397Z" fill="#E7E7E7"/>
<path d="M7.21355 17.5194H228.782V22.6721H7.21355V17.5194Z" fill="#E7E7E7"/>
<path d="M7.21355 26.7944H228.782V31.9472H7.21355V26.7944Z" fill="#E7E7E7"/>
<path d="M3.09207 37.0998H233.935V42.2525H3.09207V37.0998Z" fill="#E7E7E7"/>
<path d="M3.09207 46.3748H233.935V51.5275H3.09207V46.3748Z" fill="#E7E7E7"/>
<path d="M3.09207 46.3748H233.935V51.5275H3.09207V46.3748Z" fill="#E7E7E7"/>
<path d="M3.09207 46.3748H233.935V51.5275H3.09207V46.3748Z" fill="#E7E7E7"/>
<path d="M3.09207 56.6802H233.935V61.8329H3.09207V56.6802Z" fill="#E7E7E7"/>
<path d="M3.09207 66.9858H233.935V71.108H3.09207V66.9858Z" fill="#E7E7E7"/>
<path d="M3.09207 76.2608H233.935V81.4135H3.09207V76.2608Z" fill="#E7E7E7"/>
<path d="M3.09207 86.5661H233.935V90.6883H3.09207V86.5661Z" fill="#E7E7E7"/>
<path d="M3.09207 95.8411H233.935V100.994H3.09207V95.8411Z" fill="#E7E7E7"/>
<path d="M3.09207 115.422H233.935V120.574H3.09207V115.422Z" fill="#E7E7E7"/>
<path d="M3.09207 125.727H233.935V130.88H3.09207V125.727Z" fill="#E7E7E7"/>
<path d="M3.09207 135.002H233.935V140.155H3.09207V135.002Z" fill="#E7E7E7"/>
<path d="M3.09207 145.308H233.935V150.46H3.09207V145.308Z" fill="#E7E7E7"/>
<path d="M3.09207 154.583H233.935V159.735H3.09207V154.583Z" fill="#E7E7E7"/>
<path d="M3.09207 164.888H233.935V170.041H3.09207V164.888Z" fill="#E7E7E7"/>
<path d="M3.09207 174.163H233.935V179.316H3.09207V174.163Z" fill="#E7E7E7"/>
<path d="M3.09207 184.468H233.935V189.621H3.09207V184.468Z" fill="#E7E7E7"/>
<path d="M3.09207 204.049H233.935V209.202H3.09207V204.049Z" fill="#E7E7E7"/>
<path d="M3.09207 214.354H233.935V218.476H3.09207V214.354Z" fill="#E7E7E7"/>
<path d="M3.09207 223.629H233.935V228.782L3.09165 228.782L3.09207 223.629Z" fill="#E7E7E7"/>
<path d="M3.09207 194.774H233.935V198.896H3.09207V194.774Z" fill="#E7E7E7"/>
<path d="M3.09207 106.147H233.935V110.269H3.09207V106.147Z" fill="#E7E7E7"/>
<path d="M232.904 7.21379L235.996 7.21397V228.782L232.904 228.782V7.21379Z" fill="#ADADAD"/>
</svg>
