<svg width="77" height="78" viewBox="0 0 77 78" fill="none" xmlns="http://www.w3.org/2000/svg">
<path d="M3 3H74V75H3V3Z" fill="white"/>
<path d="M3 5.24538e-07H74V3H3L3 5.24538e-07Z" fill="#C6C6C6"/>
<path d="M74 5.24538e-07H77V75H74V5.24538e-07Z" fill="#C6C6C6"/>
<path d="M77 75V78H0L1.31135e-07 75H77Z" fill="#C6C6C6"/>
<path d="M3 75H1.31135e-07L6.92626e-06 0L3 5.24538e-07L3 75Z" fill="#C6C6C6"/>
<path d="M3 8H74V13H3V8Z" fill="#E7E7E7"/>
<path d="M3 17H74V22H3V17Z" fill="#E7E7E7"/>
<path d="M3 27H74V32H3V27Z" fill="#E7E7E7"/>
<path d="M3 36H74V41H3V36Z" fill="#E7E7E7"/>
<path d="M3 46H74V51H3V46Z" fill="#E7E7E7"/>
<path d="M3 55H74V60H3V55Z" fill="#E7E7E7"/>
<path d="M3 65H74V70H3V65Z" fill="#E7E7E7"/>
</svg>
